. 
 
http://www.torrenting.com          :     Once & For all ;)


               www . Torrenting . Com 

(((((((((((((= Enjoy No RAR releases =))))))))))))))))))))


...................................NFO:....................................

.[img]http://i.imgbox.com/aaeVxqRq.jpg[/img]


[color=green][size=3]General Info[/size][/color]
ENCODER     : Kobe
Source Video: DVDR-MPTDVD
Source Audio: DVDR-MPTDVD
Channel     : 6 channels 
IMDB        : http://www.imdb.com/title/tt1389137/
subs        : none



[color=green][size=3]Video[/size][/color]
ID                                       : 0
Format                                   : MPEG-4 Visual
Format profile                           : Advanced Simple@L5
Format settings, BVOP                    : 2
Format settings, QPel                    : No
Format settings, GMC                     : No warppoints
Format settings, Matrix                  : Default (H.263)
Muxing mode                              : Packed bitstream
Codec ID                                 : XVID
Codec ID/Hint                            : XviD
Duration                                 : 2h 3mn
Bit rate                                 : 1 795 Kbps
Width                                    : 720 pixels
Height                                   : 384 pixels
Display aspect ratio                     : 1.875
Frame rate                               : 23.976 fps
Color space                              : YUV
Chroma subsampling                       : 4:2:0
Bit depth                                : 8 bits
Scan type                                : Progressive
Compression mode                         : Lossy
Bits/(Pixel*Frame)                       : 0.271
Stream size                              : 1.55 GiB (80%)
Writing library                          : XviD 64

[color=green][size=3]Audio[/size][/color]
ID                                       : 1
Format                                   : AC-3
Format/Info                              : Audio Coding 3
Mode extension                           : CM (complete main)
Codec ID                                 : 2000
Duration                                 : 2h 3mn
Bit rate mode                            : Constant
Bit rate                                 : 448 Kbps
Channel(s)                               : 6 channels
Channel positions                        : Front: L C R, Side: L R, LFE
Sampling rate                            : 48.0 KHz
Bit depth                                : 16 bits
Compression mode                         : Lossy
Stream size                              : 397 MiB (20%)
Alignment                                : Aligned on interleaves
Interleave, duration                     : 64 ms (1.53 video frames)
Interleave, preload duration             : 192 ms
Title                                    : weboughtazoo T80 3_2ch 448Kbps DELAY 0ms




[color=red][size=3]NOTE:[/size][/color]
Straight up encode from the DVD
We also had some problems with the fps 
rate which was causing the Fast-forwarding
motion and out of syncness, but thats 
all sorted. Encode came out really well. 


 

[color=Green][size=3]Greetz[/size][/color]
unevano,Mr.hive :rock: R3dRuM,rfcgazza,Killerhz,cooperman,ANALOG,26K,Inspiral,HOPE,Xtreme Encode, Toffee :rock:, KoDeKinG :P 

[img]http://i.imgur.com/vP0kg.png[/img]
[img]http://i.imgur.com/UdqHi.png[/img]
[img]http://i.imgur.com/Jysvz.png[/img]



[img]http://i.imgur.com/wrJ5s.jpg[/img]